<?xml version="1.0" standalone="no"?>
<!DOCTYPE svg PUBLIC "-//W3C//DTD SVG 20010904//EN"
 "http://www.w3.org/TR/2001/REC-SVG-20010904/DTD/svg10.dtd">
<svg version="1.0" xmlns="http://www.w3.org/2000/svg"
 width="356.000000pt" height="412.000000pt" viewBox="0 0 356.000000 412.000000"
 preserveAspectRatio="xMidYMid meet">
<metadata>
Created by potrace 1.15, written by Peter Selinger 2001-2017
</metadata>
<g transform="translate(0.000000,412.000000) scale(0.100000,-0.100000)"
fill="#000000" stroke="none">
<path d="M0 2060 l0 -2060 1780 0 1780 0 -1 1268 c-1 1259 -1 1266 -20 1182
-10 -47 -18 -120 -19 -162 0 -42 -12 -138 -26 -213 l-26 -135 -33 0 c-35 0
-552 68 -572 75 -7 2 -13 13 -13 24 0 17 26 28 173 75 94 30 191 60 215 67 49
14 59 26 129 160 l50 96 -74 91 c-74 92 -90 132 -54 132 24 0 240 -77 258 -92
11 -9 13 130 13 771 l0 781 -805 0 -805 0 43 -38 c23 -21 144 -127 270 -235
l227 -197 0 73 c0 129 10 197 30 197 12 0 110 -144 313 -463 163 -254 299
-470 302 -478 3 -9 -1 -21 -9 -28 -12 -10 -66 15 -293 135 -153 81 -294 157
-314 169 -36 23 -366 118 -379 110 -15 -9 -1825 -326 -1845 -323 -12 2 -20 11
-20 22 0 14 111 79 465 275 256 141 471 260 479 265 10 7 -25 20 -120 46 -125
34 -134 38 -134 61 l0 24 389 35 390 35 34 60 c19 33 61 104 93 158 l57 97
-964 0 -964 0 0 -2060z m2067 1144 c3 -9 -29 -87 -80 -190 l-86 -174 32 -13
c18 -7 120 -49 227 -92 107 -43 201 -84 208 -90 16 -15 24 0 -179 -373 -82
-150 -149 -277 -149 -282 0 -11 100 -120 110 -120 5 0 87 43 183 95 95 52 181
95 190 95 10 0 157 -70 329 -156 171 -86 335 -166 364 -179 l53 -23 86 80
c121 113 126 107 102 -107 -11 -90 -14 -100 -33 -103 -12 -2 -107 13 -211 32
-104 20 -192 36 -196 36 -4 0 -7 -101 -7 -225 0 -203 2 -230 19 -263 11 -20
87 -152 170 -292 83 -140 151 -263 151 -272 0 -32 -38 -20 -186 58 l-144 76 5
-69 c10 -129 25 -375 25 -414 0 -35 -3 -39 -25 -39 -15 0 -25 6 -25 14 0 8
-185 223 -412 478 l-411 463 -251 130 -251 130 -11 328 c-6 180 -13 329 -16
332 -2 2 -331 -234 -731 -525 -400 -292 -734 -530 -741 -530 -8 0 -18 5 -21
10 -4 6 62 220 145 476 83 256 150 467 148 468 -2 2 -93 -66 -203 -151 -110
-84 -207 -152 -215 -151 -8 2 -16 11 -18 20 -2 9 120 177 286 395 159 208 286
379 282 381 -4 1 -115 -24 -246 -57 -131 -33 -242 -57 -246 -55 -32 20 16 59
515 422 l523 381 429 29 c535 37 504 36 512 16z m668 -285 c88 -18 166 -37
172 -43 10 -9 7 -29 -12 -94 -21 -65 -30 -82 -45 -82 -24 0 -320 208 -320 224
0 34 9 34 205 -5z m-1159 -1254 c18 -138 37 -295 44 -351 l12 -101 499 -584
c488 -573 498 -584 479 -603 -18 -19 -19 -18 -62 15 -23 19 -306 242 -627 497
-365 289 -589 461 -598 458 -8 -3 -181 -106 -383 -227 -228 -137 -375 -219
-385 -216 -8 4 -15 13 -15 21 0 12 834 1170 943 1309 54 70 58 60 93 -218z"/>
<path d="M1485 3130 c-137 -10 -269 -19 -291 -19 -38 -1 -76 -26 -455 -302
-228 -165 -416 -303 -418 -305 -3 -2 26 9 65 24 154 65 1412 592 1444 606 l35
15 -65 -1 c-36 0 -177 -9 -315 -18z"/>
<path d="M1227 2823 c-400 -169 -726 -307 -724 -309 2 -3 1149 284 1307 326
33 9 40 19 103 145 37 74 67 137 67 140 0 3 -6 5 -12 4 -7 0 -340 -138 -741
-306z"/>
<path d="M1836 2749 c-20 -24 -36 -46 -36 -49 0 -7 349 -34 356 -27 2 2 -56
27 -129 56 -72 29 -137 55 -143 58 -6 2 -28 -15 -48 -38z"/>
<path d="M1550 2718 l-195 -49 -430 -611 c-542 -771 -511 -726 -492 -708 54
52 1276 1334 1309 1373 32 37 36 47 21 46 -10 0 -106 -23 -213 -51z"/>
<path d="M1114 1984 c-346 -361 -640 -670 -654 -687 -20 -26 -11 -21 50 24 41
30 455 331 919 669 464 338 838 616 830 617 -24 4 -453 33 -485 33 -27 0 -95
-67 -660 -656z"/>
<path d="M932 2561 l-253 -66 -245 -320 c-134 -175 -244 -321 -244 -323 0 -2
64 46 143 106 78 60 308 236 511 391 202 154 362 281 355 280 -8 -1 -128 -31
-267 -68z"/>
<path d="M880 2309 c-178 -137 -330 -255 -337 -262 -12 -12 -276 -808 -270
-814 2 -1 199 275 438 614 443 630 502 714 497 712 -2 0 -149 -113 -328 -250z"/>
<path d="M1975 2321 c-264 -194 -270 -199 -268 -232 0 -19 4 -150 8 -292 4
-142 11 -255 15 -250 6 6 447 815 519 951 6 12 8 22 4 22 -4 -1 -129 -90 -278
-199z"/>
<path d="M2376 1927 c-82 -45 -145 -82 -140 -84 19 -6 969 -182 971 -180 1 2
-152 80 -340 174 l-343 171 -148 -81z"/>
<path d="M1872 1688 c-72 -133 -128 -245 -124 -249 6 -6 1272 -659 1392 -719
l45 -22 -31 33 c-136 146 -1137 1195 -1144 1197 -4 1 -66 -106 -138 -240z"/>
<path d="M2245 1769 c25 -29 834 -880 888 -934 22 -22 37 -35 35 -30 -9 17
-530 900 -534 904 -2 2 -84 19 -181 37 -98 18 -189 36 -203 39 l-24 6 19 -22z"/>
<path d="M2712 1691 c1 -5 57 -102 123 -214 l120 -204 3 185 c1 102 0 187 -3
190 -2 3 -49 13 -102 23 -54 10 -109 21 -121 24 -14 3 -22 2 -20 -4z"/>
<path d="M2350 1044 c229 -263 634 -713 638 -710 3 4 -18 408 -22 413 -1 1
-515 267 -596 308 l-54 27 34 -38z"/>
<path d="M1090 1253 c-223 -306 -408 -562 -413 -569 -5 -9 889 517 899 529 4
5 -71 597 -76 597 -3 0 -187 -251 -410 -557z"/>
<path d="M1492 1100 c-56 -33 -102 -64 -101 -68 0 -6 843 -677 957 -762 l47
-35 -51 60 c-29 33 -205 240 -393 460 -188 220 -345 401 -349 403 -4 1 -54
-25 -110 -58z"/>
<path d="M1870 3914 c-40 -69 -71 -127 -68 -129 2 -2 134 -33 293 -70 160 -36
297 -68 305 -71 8 -3 4 6 -10 20 -49 48 -433 376 -440 376 -4 0 -40 -56 -80
-126z"/>
<path d="M2547 3684 c-4 -59 -7 -169 -7 -244 l0 -137 241 -127 c132 -70 242
-126 243 -124 3 3 -456 724 -467 734 -2 3 -7 -44 -10 -102z"/>
<path d="M1450 3725 c-129 -13 -251 -24 -270 -25 -19 -1 -28 -4 -20 -8 8 -3
311 -85 673 -182 l657 -177 0 118 c0 113 -1 117 -22 122 -120 30 -739 171
-758 173 -14 1 -131 -8 -260 -21z"/>
<path d="M887 3358 c-230 -127 -416 -232 -415 -233 2 -1 352 59 778 135 426
76 768 140 760 144 -24 9 -686 186 -696 185 -5 0 -197 -104 -427 -231z"/>
<path d="M3228 2122 c-115 -36 -208 -69 -208 -72 0 -6 392 -59 399 -54 3 3 40
170 41 187 0 12 -17 7 -232 -61z"/>
</g>
</svg>
